<?xml version="1.0" standalone="no"?>
<!DOCTYPE svg PUBLIC "-//W3C//DTD SVG 20010904//EN"
 "http://www.w3.org/TR/2001/REC-SVG-20010904/DTD/svg10.dtd">
<svg version="1.0" xmlns="http://www.w3.org/2000/svg"
 width="340.000000pt" height="340.000000pt" viewBox="0 0 340.000000 340.000000"
 preserveAspectRatio="xMidYMid meet">
<metadata>
Created by potrace 1.11, written by Peter Selinger 2001-2013
</metadata>
<g transform="translate(0.000000,340.000000) scale(0.100000,-0.100000)"
fill="#000000" stroke="none">
<path d="M1075 3163 c3 -131 8 -267 10 -303 2 -36 7 -147 11 -247 l7 -182 -26
-10 c-70 -27 -127 -130 -127 -231 0 -33 -5 -50 -15 -54 -18 -7 -20 -40 -2 -54
16 -13 22 -82 7 -82 -10 0 -15 20 -12 53 2 13 -4 17 -15 15 -30 -6 -25 -33 12
-72 20 -22 35 -48 35 -62 0 -13 4 -24 9 -24 8 0 31 -52 31 -71 0 -16 -37 -9
-52 9 -8 9 -21 33 -28 52 -18 47 -28 57 -36 35 -7 -18 5 -80 32 -167 13 -39
21 -49 53 -62 28 -11 40 -23 46 -43 17 -71 58 -119 61 -72 0 8 2 22 2 32 3 24
48 22 69 -3 10 -11 22 -20 27 -20 6 0 5 5 -1 11 -6 6 -9 17 -6 24 2 8 -6 16
-19 20 -36 11 -67 45 -98 105 -33 65 -42 104 -42 172 1 62 12 76 48 59 29 -13
30 -11 3 56 -12 29 -11 35 4 50 17 17 19 17 31 1 7 -10 21 -18 31 -18 15 0 15
3 5 15 -21 25 0 36 42 23 44 -13 52 -30 38 -73 -10 -31 -44 -55 -78 -55 -13 0
-14 -2 -3 -9 8 -5 28 -5 49 1 25 7 37 6 42 -2 10 -16 16 -3 24 50 13 90 39 91
61 4 l12 -48 61 -2 c69 -3 83 10 23 20 -58 9 -89 63 -62 105 8 12 12 12 24 2
13 -10 17 -9 25 5 8 15 16 16 53 8 38 -8 44 -13 47 -38 2 -15 -2 -41 -9 -57
-14 -36 -7 -46 16 -23 17 17 18 17 32 -2 11 -15 14 -41 10 -115 -5 -125 -24
-164 -93 -198 -29 -15 -43 -26 -33 -28 15 -4 39 -97 39 -155 0 -37 32 -32 53
8 15 32 16 38 2 64 -17 33 -20 90 -5 90 13 0 37 -38 45 -72 6 -23 13 -27 58
-34 29 -4 102 -7 162 -8 80 -1 120 -7 145 -19 19 -9 71 -24 115 -33 102 -20
145 -39 152 -64 3 -11 9 -20 14 -20 12 0 12 -57 0 -64 -11 -7 -2 -323 11 -355
7 -18 12 -21 20 -13 17 17 33 15 19 -2 -18 -21 6 -66 35 -66 13 0 27 -7 32
-15 13 -24 70 -26 147 -6 121 33 113 33 108 -4 -5 -38 -1 -42 47 -47 31 -3 36
1 57 37 17 30 22 49 17 76 -3 23 0 45 8 58 12 20 19 21 87 15 61 -6 82 -13
117 -38 24 -17 43 -37 43 -44 1 -7 8 -15 16 -18 21 -8 19 -27 -10 -84 -14 -27
-25 -51 -25 -54 0 -2 19 2 42 9 41 12 51 21 62 58 9 30 52 21 82 -18 15 -20
24 -38 20 -42 -3 -3 -6 -1 -6 5 0 7 -5 12 -11 12 -5 0 -7 -5 -3 -12 5 -8 2 -9
-9 -5 -10 3 -17 2 -17 -2 0 -5 4 -11 9 -13 6 -2 13 -26 16 -54 5 -38 3 -54 -7
-65 -8 -8 -20 -24 -26 -36 -12 -22 -26 -24 -52 -8 -13 8 -13 6 -2 -8 12 -14
11 -19 -8 -39 -11 -12 -16 -24 -10 -26 5 -2 7 -8 4 -14 -4 -6 1 -8 14 -4 16 5
22 0 31 -25 10 -28 8 -38 -14 -76 -14 -23 -30 -43 -35 -43 -6 0 -9 -3 -8 -7 3
-15 -22 -63 -32 -63 -6 0 -8 -5 -4 -11 7 -11 -47 -93 -81 -121 -22 -19 -60
-24 -70 -9 -3 6 4 15 15 21 11 6 20 16 20 23 0 7 20 37 45 67 52 62 63 94 46
123 -11 16 -9 23 11 45 19 21 20 24 5 19 -10 -4 -23 -7 -28 -7 -5 0 -8 -3 -7
-7 4 -20 -17 -42 -44 -48 -21 -5 -34 -16 -44 -40 -7 -18 -21 -40 -29 -49 -9
-9 -12 -16 -7 -16 6 0 8 -9 5 -20 -3 -11 -9 -17 -14 -14 -5 3 -9 -4 -9 -14 0
-25 -27 -49 -41 -35 -15 15 25 113 62 151 17 17 28 35 25 40 -3 6 0 15 8 21 8
7 15 8 18 2 4 -14 23 -18 26 -6 1 6 -2 10 -6 10 -5 0 -16 8 -26 17 -10 10 -13
18 -7 18 6 0 20 19 31 42 21 44 27 98 10 98 -10 0 -70 -117 -70 -136 0 -5 -14
-27 -32 -48 l-31 -38 -60 6 c-32 4 -70 11 -83 16 -19 8 -29 5 -44 -10 -18 -18
-19 -30 -15 -136 3 -73 9 -122 17 -131 11 -14 6 -15 -42 -8 -63 8 -130 33
-130 47 0 5 -5 6 -11 3 -6 -4 -41 8 -79 26 -65 32 -70 37 -76 74 -4 22 -8 52
-8 67 -1 15 -11 38 -23 50 l-23 22 0 -21 c0 -30 -11 -54 -21 -47 -5 3 -9 0 -9
-6 0 -6 -4 -9 -9 -6 -5 4 -12 0 -14 -6 -4 -10 -6 -10 -6 0 -1 7 -5 11 -9 8
-13 -8 -14 96 -2 128 13 36 -4 68 -87 168 -56 66 -68 75 -86 69 -19 -7 -22
-17 -25 -71 -3 -71 19 -125 69 -167 29 -25 30 -28 24 -88 -8 -68 10 -204 31
-247 8 -15 14 -29 14 -33 0 -10 -45 -5 -85 10 -56 20 -93 18 -122 -5 -16 -12
-41 -20 -64 -20 -21 0 -109 -9 -196 -21 -202 -26 -386 -34 -360 -15 24 18 22
21 -18 21 -20 0 -35 -5 -35 -12 0 -6 -7 -19 -16 -28 -14 -14 -34 -15 -143 -10
-107 6 -129 4 -146 -9 -18 -14 60 -16 910 -15 597 0 934 4 942 10 7 7 18 6 31
-2 24 -15 72 -4 72 16 0 9 10 15 23 16 19 1 18 2 -9 14 -31 14 -51 42 -38 54
7 7 144 5 151 -3 3 -3 0 -12 -7 -21 -11 -14 -10 -14 16 0 16 8 34 15 39 15 6
0 16 8 24 18 29 40 117 -10 154 -87 12 -26 14 -26 130 -29 l117 -3 0 54 c0 30
-3 57 -7 61 -4 3 -8 15 -10 25 -1 10 -12 39 -23 65 -22 53 -24 66 -10 66 5 0
18 -17 29 -38 l20 -37 1 148 c0 163 -2 168 -62 126 -16 -12 -32 -18 -36 -14
-4 3 -8 28 -9 53 -2 26 -4 56 -5 67 -3 16 6 21 52 30 55 10 55 11 58 49 3 34
1 38 -12 27 -17 -15 -78 -11 -83 5 -2 6 19 21 47 33 l50 22 0 210 c0 184 -2
210 -15 205 -9 -3 -15 0 -15 10 0 10 6 14 15 10 13 -5 15 123 15 1109 l0 1115
-1165 0 -1166 0 6 -237z m211 -738 c12 -8 24 -12 27 -8 4 3 11 -5 16 -19 9
-23 27 -37 58 -44 23 -4 74 -69 71 -89 -2 -11 -9 -19 -16 -18 -17 4 -15 -5 8
-29 22 -24 26 -48 8 -48 -6 0 -27 5 -45 12 -26 9 -36 9 -45 0 -9 -9 -8 -12 5
-12 9 0 17 -5 17 -11 0 -7 -11 -8 -29 -4 -16 3 -32 2 -35 -3 -3 -5 -47 -8 -98
-6 -110 3 -106 2 -90 13 8 5 -8 6 -39 3 -35 -3 -50 -1 -45 6 3 6 2 12 -4 14
-9 3 -15 42 -11 79 0 8 17 33 36 55 19 21 35 45 35 51 0 7 11 15 25 19 14 3
25 10 25 15 0 5 11 9 24 9 13 0 29 7 36 15 16 19 40 19 66 0z m191 9 c-3 -3
-12 -4 -19 -1 -8 3 -5 6 6 6 11 1 17 -2 13 -5z m98 -128 c22 -78 25 -108 13
-123 -18 -22 -28 -15 -28 20 0 19 -8 58 -18 88 -9 30 -16 62 -14 72 6 30 30 1
47 -57z m45 -200 c0 -8 7 -16 15 -20 8 -3 15 -12 15 -20 0 -24 -22 -66 -32
-60 -16 10 -21 -28 -7 -68 12 -37 11 -42 -6 -54 -39 -29 -48 -19 -40 44 4 31
8 80 9 108 1 48 17 84 37 84 5 0 9 -6 9 -14z m910 -497 c0 -5 6 -9 14 -9 7 0
19 -7 27 -16 8 -10 21 -13 38 -9 56 14 61 14 78 -12 22 -34 27 -65 11 -75 -9
-5 -8 -8 6 -8 15 0 16 -3 6 -15 -7 -8 -9 -15 -4 -15 4 0 3 -5 -4 -12 -7 -7
-12 -22 -12 -34 0 -13 -5 -26 -10 -29 -6 -4 -7 -12 -3 -18 10 -16 13 -33 15
-87 3 -57 0 -66 -37 -108 -16 -19 -30 -39 -30 -45 0 -7 -6 -13 -12 -13 -7 -1
-17 -2 -23 -3 -15 -2 -12 -41 3 -41 7 0 18 5 25 12 9 9 12 8 12 -8 0 -27 -19
-44 -50 -44 -30 0 -72 -31 -68 -51 8 -33 -125 -63 -165 -36 -42 27 -114 147
-121 202 -22 169 -23 165 45 174 53 7 60 25 17 37 -18 5 -34 17 -36 26 -4 22
32 32 57 16 33 -20 38 2 7 27 -26 21 -29 27 -19 47 7 13 15 34 19 47 8 29 42
60 67 61 9 0 17 5 17 11 0 5 3 8 8 5 4 -2 24 3 44 13 42 19 78 24 78 10z m368
-305 c46 -32 17 -108 -66 -171 -49 -37 -52 -38 -75 -20 -16 11 -16 15 -1 60
11 33 21 47 30 43 9 -3 20 7 30 27 16 30 16 31 1 18 -15 -11 -17 -11 -17 2 0
17 45 57 64 57 6 0 22 -7 34 -16z m307 -30 c0 -17 -8 -19 -77 -20 -43 0 -78 3
-78 7 0 7 129 38 145 35 6 -2 10 -11 10 -22z m145 12 c0 -19 -14 -28 -34 -20
-13 5 -14 9 -5 20 15 18 39 18 39 0z m-315 -26 c-3 -5 -11 -10 -16 -10 -6 0
-7 5 -4 10 3 6 11 10 16 10 6 0 7 -4 4 -10z m180 -80 c13 -40 -8 -48 -130 -49
-170 -2 -161 17 25 52 101 20 98 20 105 -3z m139 5 c12 -32 -5 -47 -43 -40
-20 4 -39 9 -43 11 -15 10 -8 24 11 24 11 0 23 5 26 10 9 15 42 12 49 -5z
m-104 -25 c0 -5 -4 -10 -10 -10 -5 0 -10 5 -10 10 0 6 5 10 10 10 6 0 10 -4
10 -10z m100 -105 c0 -26 -12 -30 -60 -16 l-25 7 30 16 c43 23 55 21 55 -7z
m-137 1 c10 -26 -17 -36 -99 -36 -122 0 -121 21 2 35 27 4 51 8 53 11 10 9 39
3 44 -10z m-5 -124 c-2 -21 -8 -27 -28 -27 -14 0 -38 6 -54 14 l-30 13 28 12
c15 6 41 12 57 13 27 2 30 0 27 -25z m140 6 c-2 -16 -9 -22 -23 -21 -11 2 -35
4 -52 5 -44 4 -42 14 5 26 62 17 74 15 70 -10z m-184 -100 c-8 -12 -34 11 -34
30 0 13 3 12 20 -3 11 -10 17 -22 14 -27z m183 -22 c-9 -23 -37 -20 -37 3 0
21 20 33 34 20 5 -4 6 -15 3 -23z m-138 -3 c0 -25 -1 -26 -9 -8 -12 27 -12 35
0 35 6 0 10 -12 9 -27z m-1241 -153 c14 -19 22 -44 22 -70 0 -42 -9 -50 -30
-25 -7 8 -16 12 -21 9 -5 -3 -9 2 -9 11 0 10 -5 13 -12 9 -6 -4 -8 -3 -4 4 3
6 2 21 -2 34 -21 58 19 79 56 28z m1282 -22 c0 -6 -8 -21 -18 -32 -10 -12 -25
-37 -34 -57 -13 -30 -14 -40 -3 -66 16 -37 34 -50 46 -32 15 25 21 1 8 -30
-10 -23 -19 -29 -32 -25 -13 4 -20 0 -23 -13 -5 -17 -53 -48 -61 -39 -3 2 1
40 7 84 10 77 45 168 78 205 18 20 32 22 32 5z m-155 -27 c-8 -48 -24 -83 -35
-76 -13 8 -1 64 19 86 22 24 22 23 16 -10z m155 -106 c0 -8 -4 -15 -10 -15 -5
0 -10 7 -10 15 0 8 5 15 10 15 6 0 10 -7 10 -15z m-156 -77 c-4 -13 -10 -32
-14 -43 -10 -27 -11 -29 -21 -74 -13 -59 -85 -161 -113 -161 -26 0 -18 34 18
82 19 25 42 69 52 98 15 45 65 120 81 120 2 0 1 -10 -3 -22z m-320 -43 c-4 -8
-13 -15 -21 -15 -13 0 -13 3 -3 15 7 8 16 15 21 15 5 0 6 -7 3 -15z m-194 -10
c0 -8 -4 -15 -10 -15 -5 0 -10 7 -10 15 0 8 5 15 10 15 6 0 10 -7 10 -15z
m526 -46 c-5 -58 -26 -93 -26 -42 0 30 18 93 26 93 3 0 3 -23 0 -51z m-500 2
c-4 -6 -14 -11 -22 -11 -12 0 -12 3 -2 20 7 11 16 16 21 11 5 -5 6 -14 3 -20z
m609 -51 c3 -5 1 -10 -4 -10 -6 0 -11 5 -11 10 0 6 2 10 4 10 3 0 8 -4 11 -10z
m-70 -60 c3 -5 -1 -10 -10 -10 -9 0 -13 5 -10 10 3 6 8 10 10 10 2 0 7 -4 10
-10z m-402 -79 c-27 -22 -71 -18 -52 5 6 8 26 14 43 14 l31 -1 -22 -18z m57 9
c0 -5 -7 -7 -15 -4 -8 4 -15 8 -15 10 0 2 7 4 15 4 8 0 15 -4 15 -10z m-50
-74 c0 -9 -17 -15 -52 -19 -61 -6 -74 -1 -57 19 16 19 109 19 109 0z"/>
<path d="M1170 2390 c0 -13 11 -13 30 0 12 8 11 10 -7 10 -13 0 -23 -4 -23
-10z"/>
<path d="M2510 1360 c8 -5 22 -9 30 -9 10 0 8 3 -5 9 -27 12 -43 12 -25 0z"/>
<path d="M2346 1322 c6 -29 -24 -99 -51 -122 -16 -13 -7 -28 32 -48 32 -17 51
-15 26 3 l-22 15 20 47 c21 48 27 102 15 121 -13 22 -26 12 -20 -16z"/>
<path d="M2464 1294 c3 -23 26 -34 64 -32 43 3 40 12 -8 32 -50 20 -59 20 -56
0z"/>
<path d="M2480 1141 c0 -6 4 -13 10 -16 6 -3 7 1 4 9 -7 18 -14 21 -14 7z"/>
<path d="M2270 1131 c0 -5 6 -22 14 -38 44 -92 41 -88 74 -87 18 1 45 10 60
20 15 11 41 21 57 24 22 4 30 11 31 28 1 16 0 17 -3 4 -4 -18 -8 -18 -63 -7
-32 7 -79 24 -104 39 -47 27 -66 32 -66 17z m150 -91 c0 -5 -5 -10 -11 -10 -5
0 -7 5 -4 10 3 6 8 10 11 10 2 0 4 -4 4 -10z"/>
<path d="M2770 1169 c0 -5 5 -7 10 -4 6 3 10 8 10 11 0 2 -4 4 -10 4 -5 0 -10
-5 -10 -11z"/>
<path d="M160 1951 c0 -13 7 -18 25 -18 18 0 25 5 25 18 0 14 -7 19 -25 19
-18 0 -25 -5 -25 -19z"/>
<path d="M1225 1940 c-3 -5 1 -10 10 -10 9 0 13 5 10 10 -3 6 -8 10 -10 10 -2
0 -7 -4 -10 -10z"/>
<path d="M1305 1940 c-3 -5 1 -10 9 -10 8 0 18 5 21 10 3 6 -1 10 -9 10 -8 0
-18 -4 -21 -10z"/>
<path d="M935 1900 c3 -5 8 -10 11 -10 2 0 4 5 4 10 0 6 -5 10 -11 10 -5 0 -7
-4 -4 -10z"/>
<path d="M1305 1829 c-30 -7 -30 -7 7 -8 20 0 43 -4 52 -7 9 -3 16 -2 16 4 0
13 -39 19 -75 11z"/>
<path d="M1205 1810 c-13 -5 -14 -9 -5 -9 8 0 24 4 35 9 13 5 14 9 5 9 -8 0
-24 -4 -35 -9z"/>
<path d="M0 1683 l0 -43 53 -1 52 -1 -52 -10 c-52 -9 -53 -10 -53 -44 0 -23 5
-34 14 -34 12 0 16 -27 18 -147 3 -167 -2 -229 -20 -225 -7 1 -12 -10 -12 -28
0 -26 3 -29 18 -21 16 9 18 1 20 -116 3 -123 3 -126 -17 -120 -33 8 -27 -34 7
-55 25 -16 26 -17 5 -18 -30 0 -38 -18 -11 -23 l23 -4 -22 -2 c-13 0 -23 -7
-23 -15 0 -8 10 -17 23 -19 l22 -4 -22 -2 -23 -1 0 -375 0 -375 65 0 65 0 0
208 c-1 187 9 286 23 242 2 -8 14 -46 26 -84 24 -77 39 -173 44 -286 l4 -75
44 0 c37 0 44 3 47 21 2 17 8 20 28 16 13 -2 29 -13 35 -23 9 -17 23 -19 139
-19 125 0 163 9 129 31 -10 6 -11 9 -1 9 15 0 16 27 1 67 -20 58 -122 49 -103
-9 3 -10 0 -18 -7 -18 -8 0 -10 11 -6 35 l6 35 -42 1 c-23 0 -36 3 -28 6 10 4
8 9 -10 19 l-24 13 30 2 c17 1 41 0 54 -1 20 -1 23 2 18 19 -8 31 15 26 38 -9
20 -30 35 -39 35 -20 0 6 5 10 11 10 6 0 8 -7 5 -16 -5 -12 -2 -15 10 -10 8 3
20 6 25 6 5 0 9 7 9 15 0 8 7 15 15 15 8 0 12 -6 9 -13 -3 -8 2 -19 9 -26 12
-9 16 -8 21 5 3 9 2 22 -4 29 -8 9 -7 15 2 19 7 3 4 4 -8 3 -11 -1 -22 1 -22
6 -5 20 0 27 16 27 13 0 14 2 4 9 -11 7 -11 9 2 14 10 4 14 18 13 46 -1 44
-17 58 -17 16 0 -14 -7 -37 -16 -50 -9 -14 -13 -25 -9 -25 3 0 0 -6 -7 -13 -7
-7 -34 -14 -59 -15 -44 -1 -49 1 -94 49 -44 47 -106 89 -131 89 -7 0 -31 16
-54 35 -23 19 -48 35 -55 35 -17 0 -29 69 -17 101 7 18 6 30 -4 44 -8 10 -14
15 -14 11 0 -5 -9 3 -20 17 -11 14 -20 30 -20 35 0 20 -65 31 -72 11 -2 -5
-11 -7 -20 -4 -21 8 -36 59 -33 108 2 20 -1 39 -6 43 -5 3 -9 24 -9 48 0 56
22 76 83 76 25 0 49 5 52 10 3 6 -4 10 -17 10 -41 0 -50 19 -25 52 20 27 22
43 24 201 2 95 5 193 7 220 3 40 1 45 -11 35 -8 -7 -12 -21 -9 -33 7 -29 -2
-37 -28 -23 -11 7 -24 11 -28 10 -15 -4 -8 18 12 38 24 24 26 72 5 90 -17 14
-20 56 -5 65 17 10 11 55 -7 61 -10 3 -27 10 -38 14 -11 5 -31 12 -45 16 -14
4 -28 12 -32 18 -4 6 -8 -8 -8 -31z m85 -167 c-4 -25 -10 -46 -14 -46 -17 0
-31 26 -31 56 0 26 5 33 23 36 12 2 23 3 25 2 2 -1 0 -23 -3 -48z m24 -267
c-5 -11 -9 -25 -8 -32 3 -25 -1 -47 -10 -47 -8 0 -12 89 -4 102 2 4 10 5 18 2
11 -5 12 -11 4 -25z m376 -1009 c3 -5 1 -10 -4 -10 -6 0 -11 5 -11 10 0 6 2
10 4 10 3 0 8 -4 11 -10z"/>
<path d="M1110 1597 c0 -14 5 -29 10 -32 7 -4 8 3 4 22 -9 38 -14 42 -14 10z"/>
<path d="M869 1538 c11 -30 65 -29 95 1 l20 21 -61 0 c-61 0 -62 -1 -54 -22z"/>
<path d="M426 1508 c-3 -13 -6 -50 -6 -83 l0 -60 41 41 c41 41 41 41 28 82 -9
33 -17 42 -34 42 -15 0 -25 -8 -29 -22z"/>
<path d="M5 1070 c-3 -5 -1 -10 4 -10 6 0 11 5 11 10 0 6 -2 10 -4 10 -3 0 -8
-4 -11 -10z"/>
<path d="M0 1005 c0 -8 5 -15 10 -15 6 0 10 7 10 15 0 8 -4 15 -10 15 -5 0
-10 -7 -10 -15z"/>
<path d="M1156 715 c4 -8 11 -15 16 -15 6 0 5 6 -2 15 -7 8 -14 15 -16 15 -2
0 -1 -7 2 -15z"/>
<path d="M2812 713 c-17 -7 -42 -57 -41 -85 0 -17 4 -13 15 17 8 22 22 46 31
52 18 14 15 23 -5 16z"/>
<path d="M1180 677 c0 -7 9 -13 19 -13 15 0 17 3 9 13 -6 7 -14 13 -19 13 -5
0 -9 -6 -9 -13z"/>
<path d="M1220 642 c0 -5 7 -15 15 -22 8 -7 15 -9 15 -6 0 4 -7 14 -15 22 -8
9 -15 11 -15 6z"/>
<path d="M622 614 c10 -10 23 -14 34 -10 16 6 16 8 4 16 -8 6 -24 10 -35 10
-18 0 -18 -1 -3 -16z"/>
<path d="M380 610 c-48 -10 -31 -12 74 -10 75 1 96 -2 137 -22 27 -12 48 -28
49 -35 0 -6 4 -13 8 -15 16 -7 55 -71 61 -102 5 -21 9 -26 13 -15 17 45 -89
176 -161 198 -42 12 -126 13 -181 1z"/>
<path d="M718 590 l-67 -5 20 -32 c24 -37 63 -44 103 -18 30 20 166 30 209 15
30 -9 36 -17 45 -58 5 -26 19 -69 30 -97 12 -27 24 -59 28 -70 7 -19 8 -19 12
3 2 13 -2 29 -8 37 -7 8 -16 29 -20 47 -20 79 -59 176 -74 181 -16 6 -192 4
-278 -3z"/>
<path d="M1230 596 c0 -2 7 -7 16 -10 8 -3 12 -2 9 4 -6 10 -25 14 -25 6z"/>
<path d="M1291 521 c54 -87 70 -123 69 -149 -1 -15 -2 -34 -1 -42 3 -34 21 16
21 59 0 40 2 42 17 30 15 -12 16 -12 8 1 -15 28 -48 60 -62 60 -7 0 -13 5 -13
10 0 20 -3 25 -22 38 -10 7 -16 17 -13 22 3 4 -4 10 -14 13 -17 4 -15 -2 10
-42z"/>
<path d="M2720 487 c0 -23 4 -36 10 -32 13 8 13 35 0 55 -7 11 -10 5 -10 -23z"/>
<path d="M334 495 c-15 -11 -9 -17 57 -55 41 -24 106 -65 146 -91 61 -40 74
-45 89 -35 10 8 14 18 10 25 -5 7 -1 20 9 31 15 17 15 19 -9 43 -14 15 -26 31
-26 37 0 5 -10 10 -22 10 -12 0 -31 9 -43 20 -21 20 -21 20 -63 0 -54 -26 -78
-25 -107 4 -20 20 -27 22 -41 11z"/>
<path d="M1270 303 c0 -13 5 -23 10 -23 13 0 13 11 0 30 -8 12 -10 11 -10 -7z"/>
<path d="M1167 245 c-33 -91 -33 -89 -8 -74 22 14 35 59 29 100 -3 19 -7 14
-21 -26z"/>
<path d="M2282 268 c17 -6 34 -6 45 1 14 8 8 10 -27 9 -41 -1 -43 -2 -18 -10z"/>
<path d="M1266 254 c-3 -9 -6 -24 -6 -35 0 -10 -3 -19 -7 -19 -5 0 -9 -11 -9
-25 -2 -18 3 -25 17 -25 17 0 19 7 17 60 -2 33 -4 60 -4 60 -1 0 -5 -7 -8 -16z"/>
<path d="M1418 223 c-2 -10 -1 -34 3 -53 6 -31 6 -30 8 18 1 52 -3 67 -11 35z"/>
<path d="M1339 218 c-3 -48 -7 -85 -11 -98 -3 -8 -3 -12 -1 -7 3 4 11 7 19 7
10 0 14 14 14 55 0 30 -4 55 -10 55 -5 0 -10 -6 -11 -12z"/>
<path d="M498 163 c7 -3 16 -2 19 1 4 3 -2 6 -13 5 -11 0 -14 -3 -6 -6z"/>
<path d="M1737 133 c-27 -8 -47 -16 -45 -18 7 -7 98 17 98 26 0 5 -1 9 -2 8
-2 -1 -25 -8 -51 -16z"/>
<path d="M1080 128 c0 -16 37 -27 48 -16 18 18 14 23 -18 23 -16 0 -30 -3 -30
-7z"/>
<path d="M698 103 c7 -3 16 -2 19 1 4 3 -2 6 -13 5 -11 0 -14 -3 -6 -6z"/>
<path d="M1311 74 c0 -11 3 -14 6 -6 3 7 2 16 -1 19 -3 4 -6 -2 -5 -13z"/>
<path d="M3060 80 c0 -5 5 -10 11 -10 5 0 7 5 4 10 -3 6 -8 10 -11 10 -2 0 -4
-4 -4 -10z"/>
<path d="M706 72 c-3 -6 -1 -14 5 -17 15 -10 25 3 12 16 -7 7 -13 7 -17 1z"/>
<path d="M671 26 c12 -10 60 -16 54 -6 -3 5 -18 10 -32 10 -15 0 -24 -2 -22
-4z"/>
</g>
</svg>
